<svg xmlns="http://www.w3.org/2000/svg" viewBox="0 0 16 16">
    <path style="line-height:normal;text-indent:0;text-align:start;text-decoration-line:none;text-decoration-style:solid;text-decoration-color:#000;text-transform:none;block-progression:tb;isolation:auto;mix-blend-mode:normal" d="M 7.5 1 C 3.9160714 1 1 3.9160714 1 7.5 C 1 11.083929 3.9160714 14 7.5 14 C 11.083929 14 14 11.083929 14 7.5 C 14 3.9160714 11.083929 1 7.5 1 z M 7.5 2 C 10.543488 2 13 4.4565116 13 7.5 C 13 10.543488 10.543488 13 7.5 13 C 4.4565116 13 2 10.543488 2 7.5 C 2 4.4565116 4.4565116 2 7.5 2 z M 3.8867188 5 C 2.7927187 5 3.0195312 5.672 3.0195312 6.5 C 3.0195312 7.328 3.906 8 5 8 C 5.8614623 8 6.5869048 7.5814232 6.859375 7 L 8.265625 7 C 8.5380952 7.5814232 9.2635377 8 10.125 8 C 11.219 8 12.105469 7.328 12.105469 6.5 C 12.105469 5.672 12.332281 5 11.238281 5 L 9.0117188 5 C 8.1518941 5 8.1080088 5.4203081 8.1289062 6 L 6.9960938 6 C 7.0169912 5.4203081 6.9731059 5 6.1132812 5 L 3.8867188 5 z M 9.5332031 8.9433594 C 9.5332031 8.9433594 9.4480111 9.1781331 9.1464844 9.4550781 C 8.8449572 9.7320232 8.3600861 10.021484 7.5 10.021484 C 6.604707 10.021484 6.1240568 9.7310429 5.8339844 9.4589844 C 5.543912 9.1869259 5.4726564 8.9628906 5.4726562 8.9628906 L 4.5273438 9.2871094 C 4.5273438 9.2871094 4.695713 9.7610585 5.1503906 10.1875 C 5.6050682 10.613942 6.374293 11.021484 7.5 11.021484 C 8.5979139 11.021484 9.3632928 10.612961 9.8222656 10.191406 C 10.281238 9.7698516 10.466797 9.3066406 10.466797 9.3066406 L 9.5332031 8.9433594 z" font-weight="400" font-family="sans-serif" white-space="normal" overflow="visible"/>
</svg>